<?xml version="1.0" encoding="UTF-8" standalone="no"?>
<svg
   width="123.90859mm"
   height="186.08292mm"
   viewBox="0 0 123.90859 186.08292"
   version="1.1"
   id="svg7802"
   inkscape:version="1.1-dev (dbd6ba0f1d, 2020-09-21)"
   sodipodi:docname="straight_beam.svg"
   xmlns:inkscape="http://www.inkscape.org/namespaces/inkscape"
   xmlns:sodipodi="http://sodipodi.sourceforge.net/DTD/sodipodi-0.dtd"
   xmlns="http://www.w3.org/2000/svg"
   xmlns:svg="http://www.w3.org/2000/svg"
   xmlns:rdf="http://www.w3.org/1999/02/22-rdf-syntax-ns#"
   xmlns:cc="http://creativecommons.org/ns#"
   xmlns:dc="http://purl.org/dc/elements/1.1/">
  <defs
     id="defs7796">
    <marker
       inkscape:stockid="DistanceEnd"
       orient="auto"
       refY="0"
       refX="0"
       id="DistanceEnd"
       style="overflow:visible"
       inkscape:isstock="true">
      <g
         id="g2301"
         style="fill:#000000;fill-opacity:1;stroke:#000000;stroke-opacity:1">
        <path
           id="path2316"
           d="M 0,0 H -2"
           style="fill:#000000;fill-opacity:1;stroke:#000000;stroke-width:1.15;stroke-linecap:square;stroke-opacity:1" />
        <path
           id="path2312"
           d="m 0,0 -13,4 4,-4 -4,-4 z"
           style="fill:#000000;fill-opacity:1;fill-rule:evenodd;stroke:#000000;stroke-opacity:1" />
        <path
           id="path2314"
           d="M 0,-4 V 40"
           style="fill:#000000;fill-opacity:1;stroke:#000000;stroke-width:1;stroke-linecap:square;stroke-opacity:1" />
      </g>
    </marker>
    <marker
       inkscape:stockid="DistanceStart"
       orient="auto"
       refY="0"
       refX="0"
       id="DistanceStart"
       style="overflow:visible"
       inkscape:isstock="true">
      <g
         id="g2300"
         style="fill:#000000;fill-opacity:1;stroke:#000000;stroke-opacity:1">
        <path
           id="path2306"
           d="M 0,0 H 2"
           style="fill:#000000;fill-opacity:1;stroke:#000000;stroke-width:1.15;stroke-linecap:square;stroke-opacity:1" />
        <path
           id="path2302"
           d="M 0,0 13,4 9,0 13,-4 Z"
           style="fill:#000000;fill-opacity:1;fill-rule:evenodd;stroke:#000000;stroke-opacity:1" />
        <path
           id="path2304"
           d="M 0,-4 V 40"
           style="fill:#000000;fill-opacity:1;stroke:#000000;stroke-width:1;stroke-linecap:square;stroke-opacity:1" />
      </g>
    </marker>
    <marker
       style="overflow:visible"
       id="Arrow2Mstart"
       refX="0"
       refY="0"
       orient="auto"
       inkscape:stockid="Arrow2Mstart"
       inkscape:isstock="true">
      <path
         transform="scale(0.6)"
         d="M 8.7185878,4.0337352 -2.2072895,0.01601326 8.7185884,-4.0017078 c -1.7454984,2.3720609 -1.7354408,5.6174519 -6e-7,8.035443 z"
         style="fill:#000000;fill-opacity:1;fill-rule:evenodd;stroke:#000000;stroke-width:0.625;stroke-linejoin:round;stroke-opacity:1"
         id="path8471" />
    </marker>
    <marker
       style="overflow:visible"
       id="Arrow1Mstart"
       refX="0"
       refY="0"
       orient="auto"
       inkscape:stockid="Arrow1Mstart"
       inkscape:isstock="true">
      <path
         transform="matrix(0.4,0,0,0.4,4,0)"
         style="fill:#000000;fill-opacity:1;fill-rule:evenodd;stroke:#000000;stroke-width:1pt;stroke-opacity:1"
         d="M 0,0 5,-5 -12.5,0 5,5 Z"
         id="path8453" />
    </marker>
    <marker
       style="overflow:visible"
       id="marker12680"
       refX="0"
       refY="0"
       orient="auto"
       inkscape:stockid="Arrow1Lend"
       inkscape:isstock="true">
      <path
         transform="matrix(-0.8,0,0,-0.8,-10,0)"
         style="fill:#000000;fill-opacity:1;fill-rule:evenodd;stroke:#000000;stroke-width:1pt;stroke-opacity:1"
         d="M 0,0 5,-5 -12.5,0 5,5 Z"
         id="path12678" />
    </marker>
    <marker
       style="overflow:visible"
       id="marker9675"
       refX="0"
       refY="0"
       orient="auto"
       inkscape:stockid="Arrow2Mend"
       inkscape:isstock="true">
      <path
         transform="scale(-0.6)"
         d="M 8.7185878,4.0337352 -2.2072895,0.01601326 8.7185884,-4.0017078 c -1.7454984,2.3720609 -1.7354408,5.6174519 -6e-7,8.035443 z"
         style="fill:#000000;fill-opacity:1;fill-rule:evenodd;stroke:#000000;stroke-width:0.625;stroke-linejoin:round;stroke-opacity:1"
         id="path9673" />
    </marker>
    <marker
       style="overflow:visible"
       id="Arrow2Mend"
       refX="0"
       refY="0"
       orient="auto"
       inkscape:stockid="Arrow2Mend"
       inkscape:isstock="true"
       inkscape:collect="always">
      <path
         transform="scale(-0.6)"
         d="M 8.7185878,4.0337352 -2.2072895,0.01601326 8.7185884,-4.0017078 c -1.7454984,2.3720609 -1.7354408,5.6174519 -6e-7,8.035443 z"
         style="fill:#000000;fill-opacity:1;fill-rule:evenodd;stroke:#000000;stroke-width:0.625;stroke-linejoin:round;stroke-opacity:1"
         id="path8474" />
    </marker>
    <inkscape:path-effect
       effect="skeletal"
       id="path-effect9006"
       is_visible="true"
       lpeversion="1"
       pattern="m -6.0753865,34.575689 a 0.04746636,0.04961426 0 0 0 -0.03955,0.03359 l -0.6110685,1.73426 a 0.04746636,0.04961426 0 0 0 0.073169,0.05633 c 0.1389925,-0.104276 0.2967957,-0.165269 0.4578087,-0.187071 v 8.367447 h 0.254116 v -8.367964 c 0.160261,0.02169 0.3164292,0.08302 0.4523698,0.187585 a 0.04746636,0.04961426 0 0 0 0.072671,-0.05633 l -0.609091,-1.734258 a 0.04746636,0.04961426 0 0 0 -0.041033,-0.03359 0.04746636,0.04961426 0 0 0 -0.00938,0 z m 0.00545,0.193786 0.5438301,1.55081 c -0.1298253,-0.08109 -0.2703073,-0.130208 -0.4133122,-0.148829 0.044229,0.0033 0.078756,0.0084 0.1255775,0.02119 0.086907,0.02374 0.1911875,0.0655 0.2442284,0.09767 0.017192,0.01042 0.032107,0.01794 0.033121,0.01654 0.00124,-0.0018 -0.5111451,-1.465858 -0.5314713,-1.51826 -0.00124,-0.0035 -0.1161664,0.31536 -0.2546126,0.709 -0.138449,0.39364 -0.259065,0.73746 -0.268456,0.763778 -0.00947,0.02632 -0.014963,0.0469 -0.011873,0.04547 0.00306,-0.0014 0.033705,-0.01686 0.067735,-0.03411 0.083377,-0.04225 0.1762869,-0.07392 0.2743867,-0.09353 0.025554,-0.0051 0.04508,-0.0071 0.065755,-0.0093 v 10e-4 c -0.1447796,0.01842 -0.2878629,0.06798 -0.4207276,0.149343 z m -0.09888,1.396814 c 0.031217,-0.0018 0.069084,-0.0016 0.1310144,0 0.01458,3.7e-4 0.018101,0.0012 0.030156,0.0016 -0.047434,-0.0029 -0.094867,-0.0039 -0.142385,0 h -0.029668 c 0.00354,-2.65e-4 0.00718,-0.0013 0.010887,-0.0016 z"
       copytype="repeated_stretched"
       prop_scale="1"
       scale_y_rel="false"
       spacing="4"
       normal_offset="-5.5"
       tang_offset="0"
       prop_units="false"
       vertical_pattern="false"
       hide_knot="false"
       fuse_tolerance="0" />
    <marker
       style="overflow:visible"
       id="Arrow1Lstart"
       refX="0"
       refY="0"
       orient="auto"
       inkscape:stockid="Arrow1Lstart"
       inkscape:isstock="true">
      <path
         transform="matrix(0.8,0,0,0.8,10,0)"
         style="fill:#000000;fill-opacity:1;fill-rule:evenodd;stroke:#000000;stroke-width:1pt;stroke-opacity:1"
         d="M 0,0 5,-5 -12.5,0 5,5 Z"
         id="path8447" />
    </marker>
    <inkscape:path-effect
       effect="skeletal"
       id="path-effect8443"
       is_visible="true"
       lpeversion="1"
       pattern="M 0,0 1.3229167,-1.3229167 -3.3072917,0 1.3229167,1.3229167 Z"
       copytype="repeated"
       prop_scale="1"
       scale_y_rel="false"
       spacing="1"
       normal_offset="-0.5"
       tang_offset="0"
       prop_units="true"
       vertical_pattern="true"
       hide_knot="false"
       fuse_tolerance="0" />
    <inkscape:path-effect
       effect="interpolate"
       id="path-effect8423"
       is_visible="true"
       lpeversion="1"
       trajectory="M 0,0 V 0"
       equidistant_spacing="true"
       steps="5" />
    <marker
       style="overflow:visible"
       id="Arrow1Lstart-3"
       refX="0"
       refY="0"
       orient="auto"
       inkscape:stockid="Arrow1Lstart"
       inkscape:isstock="true">
      <path
         transform="matrix(0.8,0,0,0.8,10,0)"
         style="fill:#000000;fill-opacity:1;fill-rule:evenodd;stroke:#000000;stroke-width:1pt;stroke-opacity:1"
         d="M 0,0 5,-5 -12.5,0 5,5 Z"
         id="path8447-7" />
    </marker>
  </defs>
  <sodipodi:namedview
     id="base"
     pagecolor="#ffffff"
     bordercolor="#666666"
     borderopacity="1.0"
     inkscape:pageopacity="0.0"
     inkscape:pageshadow="2"
     inkscape:zoom="0.77486645"
     inkscape:cx="-207.13247"
     inkscape:cy="328.44369"
     inkscape:document-units="mm"
     inkscape:current-layer="layer1"
     inkscape:document-rotation="0"
     showgrid="true"
     inkscape:window-width="1920"
     inkscape:window-height="1056"
     inkscape:window-x="0"
     inkscape:window-y="24"
     inkscape:window-maximized="1"
     inkscape:snap-grids="true"
     fit-margin-top="0"
     fit-margin-left="0"
     fit-margin-right="0"
     fit-margin-bottom="0">
    <inkscape:grid
       type="xygrid"
       id="grid8415"
       originx="-6.007985"
       originy="0.31999017" />
  </sodipodi:namedview>
  <metadata
     id="metadata7799">
    <rdf:RDF>
      <cc:Work
         rdf:about="">
        <dc:format>image/svg+xml</dc:format>
        <dc:type
           rdf:resource="http://purl.org/dc/dcmitype/StillImage" />
        <dc:title />
      </cc:Work>
    </rdf:RDF>
  </metadata>
  <g
     inkscape:label="Layer 1"
     inkscape:groupmode="layer"
     id="layer1"
     transform="translate(-6.0079856,0.31999015)">
    <ellipse
       style="fill:#808080;stroke:#000000;stroke-width:1"
       id="path8365"
       cx="10.819415"
       cy="60.09045"
       ry="10.505006"
       rx="4.3114295" />
    <rect
       style="fill:#808080;stroke:#000000;stroke-width:0.996974"
       id="rect8396"
       width="113.64167"
       height="20.781601"
       x="11.358332"
       y="49.699635" />
    <rect
       style="fill:#808080;stroke:none;stroke-width:0.636922"
       id="rect8419"
       width="3.7777672"
       height="20.010559"
       x="10"
       y="50.083347"
       ry="1" />
    <ellipse
       style="fill:#808080;stroke:#000000;stroke-width:1.00099"
       id="path8365-0"
       cx="125.04454"
       cy="60.09045"
       ry="10.380926"
       rx="4.3715453" />
    <path
       style="fill:none;stroke:#000000;stroke-width:1;stroke-linecap:butt;stroke-linejoin:miter;stroke-opacity:1"
       d="M 10,70.083318 71.358332,164.57545 125,71.083318"
       id="path8413"
       sodipodi:nodetypes="ccc" />
    <path
       style="fill:none;stroke:#000000;stroke-width:0.5"
       id="path8417"
       sodipodi:type="arc"
       sodipodi:cx="10.529166"
       sodipodi:cy="70.612518"
       sodipodi:rx="16"
       sodipodi:ry="16"
       sodipodi:start="6.2774199"
       sodipodi:end="0.99787799"
       sodipodi:arc-type="slice"
       d="M 26.5289,70.520272 A 16,16 0 0 1 19.202553,84.057679 L 10.529166,70.612518 Z" />
    <path
       style="opacity:0.996;fill:#000000;stroke:#000000;stroke-width:0.258792px;stroke-linecap:butt;stroke-linejoin:miter;stroke-opacity:1"
       d="m 14.1023,38.944954 c -0.01839,0.0022 -0.03387,0.01532 -0.03973,0.03359 l -0.613815,1.73426 c -0.0158,0.04628 0.03571,0.08576 0.0735,0.05633 0.139617,-0.104276 0.298129,-0.165269 0.459866,-0.187071 v 8.367447 h 0.255258 v -8.367964 c 0.160982,0.02169 0.317852,0.08302 0.454404,0.187585 0.03771,0.02831 0.08808,-0.01056 0.073,-0.05633 l -0.611829,-1.734258 c -0.0061,-0.01875 -0.02227,-0.03195 -0.04122,-0.03359 -0.0031,-3.24e-4 -0.0063,-3.24e-4 -0.0094,0 z m 0.0055,0.193786 0.546275,1.55081 c -0.130409,-0.08109 -0.271522,-0.130208 -0.41517,-0.148829 0.04443,0.0033 0.07911,0.0084 0.126142,0.02119 0.0873,0.02374 0.192047,0.0655 0.245326,0.09767 0.01727,0.01042 0.03225,0.01794 0.03327,0.01654 0.0012,-0.0018 -0.513443,-1.465858 -0.53386,-1.51826 -0.0012,-0.0035 -0.116689,0.31536 -0.255757,0.709 -0.139072,0.39364 -0.26023,0.73746 -0.269663,0.763778 -0.0095,0.02632 -0.01503,0.0469 -0.01193,0.04547 0.0031,-0.0014 0.03386,-0.01686 0.06804,-0.03411 0.08375,-0.04225 0.177079,-0.07392 0.27562,-0.09353 0.02567,-0.0051 0.04528,-0.0071 0.06605,-0.0093 v 10e-4 c -0.145431,0.01842 -0.289157,0.06798 -0.422619,0.149343 z m -0.09932,1.396814 c 0.03136,-0.0018 0.06939,-0.0016 0.131603,0 0.01465,3.7e-4 0.01818,0.0012 0.03029,0.0016 -0.04765,-0.0029 -0.09529,-0.0039 -0.143025,0 h -0.0298 c 0.0036,-2.65e-4 0.0072,-0.0013 0.01094,-0.0016 z m 5.433182,-1.5906 c -0.01838,0.0022 -0.03387,0.01532 -0.03973,0.03359 l -0.613815,1.73426 c -0.0158,0.04628 0.03571,0.08576 0.0735,0.05633 0.139617,-0.104276 0.29813,-0.165269 0.459867,-0.187071 v 8.367447 h 0.255258 v -8.367964 c 0.160981,0.02169 0.317851,0.08302 0.454403,0.187585 0.03771,0.02831 0.08808,-0.01056 0.073,-0.05633 l -0.611829,-1.734258 c -0.0061,-0.01875 -0.02227,-0.03195 -0.04122,-0.03359 -0.0031,-3.24e-4 -0.0063,-3.24e-4 -0.0094,0 z m 0.0055,0.193786 0.546274,1.55081 c -0.130409,-0.08109 -0.271522,-0.130208 -0.41517,-0.148829 0.04443,0.0033 0.07911,0.0084 0.126142,0.02119 0.0873,0.02374 0.192047,0.0655 0.245326,0.09767 0.01727,0.01042 0.03225,0.01794 0.03327,0.01654 0.0012,-0.0018 -0.513442,-1.465858 -0.53386,-1.51826 -0.0012,-0.0035 -0.116688,0.31536 -0.255757,0.709 -0.139071,0.39364 -0.260229,0.73746 -0.269663,0.763778 -0.0095,0.02632 -0.01503,0.0469 -0.01193,0.04547 0.0031,-0.0014 0.03386,-0.01686 0.06804,-0.03411 0.08375,-0.04225 0.17708,-0.07392 0.27562,-0.09353 0.02567,-0.0051 0.04528,-0.0071 0.06605,-0.0093 v 10e-4 c -0.14543,0.01842 -0.289157,0.06798 -0.422619,0.149343 z m -0.09933,1.396814 c 0.03136,-0.0018 0.0694,-0.0016 0.131604,0 0.01464,3.7e-4 0.01818,0.0012 0.03029,0.0016 -0.04765,-0.0029 -0.09529,-0.0039 -0.143025,0 h -0.0298 c 0.0036,-2.65e-4 0.0072,-0.0013 0.01094,-0.0016 z m 5.433183,-1.5906 c -0.01839,0.0022 -0.03387,0.01532 -0.03973,0.03359 l -0.613815,1.73426 c -0.0158,0.04628 0.03571,0.08576 0.0735,0.05633 0.139617,-0.104276 0.298129,-0.165269 0.459866,-0.187071 v 8.367447 h 0.255258 v -8.367964 c 0.160982,0.02169 0.317852,0.08302 0.454404,0.187585 0.03771,0.02831 0.08808,-0.01056 0.073,-0.05633 l -0.611829,-1.734258 c -0.0061,-0.01875 -0.02227,-0.03195 -0.04122,-0.03359 -0.0031,-3.24e-4 -0.0063,-3.24e-4 -0.0094,0 z m 0.0055,0.193786 0.546275,1.55081 c -0.130409,-0.08109 -0.271523,-0.130208 -0.41517,-0.148829 0.04443,0.0033 0.07911,0.0084 0.126142,0.02119 0.0873,0.02374 0.192047,0.0655 0.245326,0.09767 0.01727,0.01042 0.03225,0.01794 0.03327,0.01654 0.0012,-0.0018 -0.513443,-1.465858 -0.53386,-1.51826 -0.0012,-0.0035 -0.116689,0.31536 -0.255758,0.709 -0.139071,0.39364 -0.260229,0.73746 -0.269662,0.763778 -0.0095,0.02632 -0.01503,0.0469 -0.01193,0.04547 0.0031,-0.0014 0.03386,-0.01686 0.06804,-0.03411 0.08375,-0.04225 0.177079,-0.07392 0.27562,-0.09353 0.02567,-0.0051 0.04528,-0.0071 0.06605,-0.0093 v 10e-4 c -0.145431,0.01842 -0.289157,0.06798 -0.422619,0.149343 z m -0.09932,1.396814 c 0.03136,-0.0018 0.06939,-0.0016 0.131603,0 0.01465,3.7e-4 0.01818,0.0012 0.03029,0.0016 -0.04765,-0.0029 -0.09529,-0.0039 -0.143025,0 l -0.0298,0 c 0.0036,-2.65e-4 0.0072,-0.0013 0.01094,-0.0016 z m 5.433182,-1.5906 c -0.01839,0.0022 -0.03387,0.01532 -0.03973,0.03359 l -0.613815,1.73426 c -0.0158,0.04628 0.03571,0.08576 0.0735,0.05633 0.139617,-0.104276 0.29813,-0.165269 0.459867,-0.187071 v 8.367447 h 0.255258 v -8.367964 c 0.160981,0.02169 0.317851,0.08302 0.454403,0.187585 0.03771,0.02831 0.08808,-0.01056 0.073,-0.05633 l -0.611829,-1.734258 c -0.0061,-0.01875 -0.02227,-0.03195 -0.04122,-0.03359 -0.0031,-3.24e-4 -0.0063,-3.24e-4 -0.0094,0 z m 0.0055,0.193786 0.546274,1.55081 c -0.130409,-0.08109 -0.271522,-0.130208 -0.41517,-0.148829 0.04443,0.0033 0.07911,0.0084 0.126142,0.02119 0.0873,0.02374 0.192047,0.0655 0.245326,0.09767 0.01727,0.01042 0.03225,0.01794 0.03327,0.01654 0.0012,-0.0018 -0.513442,-1.465858 -0.53386,-1.51826 -0.0012,-0.0035 -0.116689,0.31536 -0.255757,0.709 -0.139071,0.39364 -0.26023,0.73746 -0.269663,0.763778 -0.0095,0.02632 -0.01503,0.0469 -0.01193,0.04547 0.0031,-0.0014 0.03386,-0.01686 0.06804,-0.03411 0.08375,-0.04225 0.17708,-0.07392 0.27562,-0.09353 0.02567,-0.0051 0.04528,-0.0071 0.06605,-0.0093 v 10e-4 c -0.14543,0.01842 -0.289157,0.06798 -0.422619,0.149343 z m -0.09933,1.396814 c 0.03136,-0.0018 0.0694,-0.0016 0.131604,0 0.01464,3.7e-4 0.01818,0.0012 0.03029,0.0016 -0.04765,-0.0029 -0.09529,-0.0039 -0.143025,0 h -0.0298 c 0.0036,-2.65e-4 0.0072,-0.0013 0.01094,-0.0016 z m 5.433183,-1.5906 c -0.01839,0.0022 -0.03387,0.01532 -0.03973,0.03359 l -0.613815,1.73426 c -0.0158,0.04628 0.03571,0.08576 0.0735,0.05633 0.139618,-0.104276 0.29813,-0.165269 0.459867,-0.187071 v 8.367447 h 0.255258 v -8.367964 c 0.160982,0.02169 0.317852,0.08302 0.454403,0.187585 0.03771,0.02831 0.08808,-0.01056 0.073,-0.05633 l -0.611829,-1.734258 c -0.0061,-0.01875 -0.02227,-0.03195 -0.04122,-0.03359 -0.0031,-3.24e-4 -0.0063,-3.24e-4 -0.0094,0 z m 0.0055,0.193786 0.546275,1.55081 c -0.130409,-0.08109 -0.271523,-0.130208 -0.41517,-0.148829 0.04443,0.0033 0.07911,0.0084 0.126142,0.02119 0.0873,0.02374 0.192047,0.0655 0.245326,0.09767 0.01727,0.01042 0.03225,0.01794 0.03327,0.01654 0.0012,-0.0018 -0.513443,-1.465858 -0.533861,-1.51826 -0.0012,-0.0035 -0.116688,0.31536 -0.255757,0.709 -0.139071,0.39364 -0.260229,0.73746 -0.269662,0.763778 -0.0095,0.02632 -0.01503,0.0469 -0.01193,0.04547 0.0031,-0.0014 0.03386,-0.01686 0.06804,-0.03411 0.08375,-0.04225 0.177079,-0.07392 0.27562,-0.09353 0.02567,-0.0051 0.04528,-0.0071 0.06605,-0.0093 v 10e-4 c -0.14543,0.01842 -0.289156,0.06798 -0.422618,0.149343 z m -0.09932,1.396814 c 0.03136,-0.0018 0.06939,-0.0016 0.131603,0 0.01465,3.7e-4 0.01818,0.0012 0.03029,0.0016 -0.04765,-0.0029 -0.09529,-0.0039 -0.143025,0 h -0.0298 c 0.0036,-2.65e-4 0.0072,-0.0013 0.01094,-0.0016 z m 5.433182,-1.5906 c -0.01839,0.0022 -0.03387,0.01532 -0.03973,0.03359 l -0.613815,1.73426 c -0.0158,0.04628 0.03571,0.08576 0.0735,0.05633 0.139617,-0.104276 0.29813,-0.165269 0.459867,-0.187071 v 8.367447 h 0.255258 v -8.367964 c 0.160981,0.02169 0.317851,0.08302 0.454403,0.187585 0.03771,0.02831 0.08808,-0.01056 0.073,-0.05633 l -0.611829,-1.734258 c -0.0061,-0.01875 -0.02227,-0.03195 -0.04122,-0.03359 -0.0031,-3.24e-4 -0.0063,-3.24e-4 -0.0094,0 z m 0.0055,0.193786 0.546274,1.55081 c -0.130409,-0.08109 -0.271522,-0.130208 -0.41517,-0.148829 0.04443,0.0033 0.07911,0.0084 0.126142,0.02119 0.0873,0.02374 0.192047,0.0655 0.245326,0.09767 0.01727,0.01042 0.03225,0.01794 0.03327,0.01654 0.0012,-0.0018 -0.513442,-1.465858 -0.53386,-1.51826 -0.0012,-0.0035 -0.116689,0.31536 -0.255757,0.709 -0.139071,0.39364 -0.26023,0.73746 -0.269663,0.763778 -0.0095,0.02632 -0.01503,0.0469 -0.01193,0.04547 0.0031,-0.0014 0.03386,-0.01686 0.06804,-0.03411 0.08375,-0.04225 0.17708,-0.07392 0.27562,-0.09353 0.02567,-0.0051 0.04528,-0.0071 0.06605,-0.0093 v 10e-4 c -0.14543,0.01842 -0.289157,0.06798 -0.422619,0.149343 z m -0.09933,1.396814 c 0.03136,-0.0018 0.0694,-0.0016 0.131603,0 0.01465,3.7e-4 0.01818,0.0012 0.03029,0.0016 -0.04765,-0.0029 -0.09529,-0.0039 -0.143025,0 h -0.0298 c 0.0036,-2.65e-4 0.0072,-0.0013 0.01094,-0.0016 z m 5.433183,-1.5906 c -0.01839,0.0022 -0.03387,0.01532 -0.03973,0.03359 l -0.613815,1.73426 c -0.0158,0.04628 0.03571,0.08576 0.0735,0.05633 0.139618,-0.104276 0.29813,-0.165269 0.459867,-0.187071 v 8.367447 h 0.255258 v -8.367964 c 0.160982,0.02169 0.317852,0.08302 0.454403,0.187585 0.03771,0.02831 0.08808,-0.01056 0.073,-0.05633 l -0.611829,-1.734258 c -0.0061,-0.01875 -0.02227,-0.03195 -0.04122,-0.03359 -0.0031,-3.24e-4 -0.0063,-3.24e-4 -0.0094,0 z m 0.0055,0.193786 0.546275,1.55081 c -0.130409,-0.08109 -0.271523,-0.130208 -0.41517,-0.148829 0.04443,0.0033 0.07911,0.0084 0.126142,0.02119 0.0873,0.02374 0.192046,0.0655 0.245326,0.09767 0.01727,0.01042 0.03225,0.01794 0.03327,0.01654 0.0012,-0.0018 -0.513443,-1.465858 -0.533861,-1.51826 -0.0012,-0.0035 -0.116688,0.31536 -0.255757,0.709 -0.139071,0.39364 -0.260229,0.73746 -0.269662,0.763778 -0.0095,0.02632 -0.01503,0.0469 -0.01193,0.04547 0.0031,-0.0014 0.03386,-0.01686 0.06804,-0.03411 0.08375,-0.04225 0.177079,-0.07392 0.27562,-0.09353 0.02567,-0.0051 0.04528,-0.0071 0.06605,-0.0093 v 10e-4 c -0.14543,0.01842 -0.289156,0.06798 -0.422618,0.149343 z m -0.09932,1.396814 c 0.03136,-0.0018 0.06939,-0.0016 0.131603,0 0.01465,3.7e-4 0.01818,0.0012 0.03029,0.0016 -0.04765,-0.0029 -0.09529,-0.0039 -0.143025,0 l -0.0298,0 c 0.0036,-2.65e-4 0.0072,-0.0013 0.01094,-0.0016 z m 5.433182,-1.5906 c -0.01839,0.0022 -0.03387,0.01532 -0.03973,0.03359 l -0.613815,1.73426 c -0.0158,0.04628 0.03571,0.08576 0.0735,0.05633 0.139617,-0.104276 0.29813,-0.165269 0.459866,-0.187071 v 8.367447 l 0.255259,0 v -8.367964 c 0.160981,0.02169 0.317851,0.08302 0.454403,0.187585 0.03771,0.02831 0.08808,-0.01056 0.073,-0.05633 l -0.611829,-1.734258 c -0.0061,-0.01875 -0.02227,-0.03195 -0.04122,-0.03359 -0.0031,-3.24e-4 -0.0063,-3.24e-4 -0.0094,0 z m 0.0055,0.193786 0.546274,1.55081 c -0.130409,-0.08109 -0.271522,-0.130208 -0.41517,-0.148829 0.04443,0.0033 0.07911,0.0084 0.126142,0.02119 0.0873,0.02374 0.192047,0.0655 0.245326,0.09767 0.01727,0.01042 0.03225,0.01794 0.03327,0.01654 0.0012,-0.0018 -0.513443,-1.465858 -0.53386,-1.51826 -0.0012,-0.0035 -0.116689,0.31536 -0.255757,0.709 -0.139072,0.39364 -0.26023,0.73746 -0.269663,0.763778 -0.0095,0.02632 -0.01503,0.0469 -0.01193,0.04547 0.0031,-0.0014 0.03386,-0.01686 0.06804,-0.03411 0.08375,-0.04225 0.17708,-0.07392 0.27562,-0.09353 0.02567,-0.0051 0.04528,-0.0071 0.06605,-0.0093 v 10e-4 c -0.145431,0.01842 -0.289157,0.06798 -0.422619,0.149343 z m -0.09933,1.396814 c 0.03136,-0.0018 0.0694,-0.0016 0.131603,0 0.01465,3.7e-4 0.01818,0.0012 0.03029,0.0016 -0.04765,-0.0029 -0.09529,-0.0039 -0.143025,0 l -0.0298,0 c 0.0036,-2.65e-4 0.0072,-0.0013 0.01093,-0.0016 z m 5.433182,-1.5906 c -0.01838,0.0022 -0.03387,0.01532 -0.03973,0.03359 l -0.613816,1.73426 c -0.0158,0.04628 0.03571,0.08576 0.0735,0.05633 0.139618,-0.104276 0.29813,-0.165269 0.459867,-0.187071 v 8.367447 h 0.255258 v -8.367964 c 0.160982,0.02169 0.317852,0.08302 0.454403,0.187585 0.03771,0.02831 0.08808,-0.01056 0.073,-0.05633 l -0.611829,-1.734258 c -0.0061,-0.01875 -0.02227,-0.03195 -0.04122,-0.03359 -0.0031,-3.24e-4 -0.0063,-3.24e-4 -0.0094,0 z m 0.0055,0.193786 0.546275,1.55081 c -0.130409,-0.08109 -0.271523,-0.130208 -0.41517,-0.148829 0.04443,0.0033 0.07911,0.0084 0.126142,0.02119 0.0873,0.02374 0.192046,0.0655 0.245326,0.09767 0.01727,0.01042 0.03225,0.01794 0.03327,0.01654 0.0012,-0.0018 -0.513443,-1.465858 -0.533861,-1.51826 -0.0012,-0.0035 -0.116688,0.31536 -0.255757,0.709 -0.139071,0.39364 -0.260229,0.73746 -0.269662,0.763778 -0.0095,0.02632 -0.01503,0.0469 -0.01193,0.04547 0.0031,-0.0014 0.03386,-0.01686 0.06804,-0.03411 0.08375,-0.04225 0.177079,-0.07392 0.27562,-0.09353 0.02567,-0.0051 0.04528,-0.0071 0.06605,-0.0093 v 10e-4 c -0.14543,0.01842 -0.289157,0.06798 -0.422618,0.149343 z m -0.09932,1.396814 c 0.03136,-0.0018 0.06939,-0.0016 0.131603,0 0.01465,3.7e-4 0.01818,0.0012 0.03029,0.0016 -0.04765,-0.0029 -0.09529,-0.0039 -0.143025,0 h -0.0298 c 0.0036,-2.65e-4 0.0072,-0.0013 0.01094,-0.0016 z m 5.433182,-1.5906 c -0.01839,0.0022 -0.03387,0.01532 -0.03973,0.03359 l -0.613815,1.73426 c -0.0158,0.04628 0.03571,0.08576 0.0735,0.05633 0.139617,-0.104276 0.29813,-0.165269 0.459866,-0.187071 v 8.367447 h 0.255259 v -8.367964 c 0.160981,0.02169 0.317851,0.08302 0.454403,0.187585 0.03771,0.02831 0.08808,-0.01056 0.073,-0.05633 l -0.611828,-1.734258 c -0.0061,-0.01875 -0.02227,-0.03195 -0.04122,-0.03359 -0.0031,-3.24e-4 -0.0063,-3.24e-4 -0.0094,0 z m 0.0055,0.193786 0.546275,1.55081 c -0.130409,-0.08109 -0.271522,-0.130208 -0.41517,-0.148829 0.04443,0.0033 0.07911,0.0084 0.126142,0.02119 0.0873,0.02374 0.192047,0.0655 0.245326,0.09767 0.01727,0.01042 0.03225,0.01794 0.03327,0.01654 0.0012,-0.0018 -0.513443,-1.465858 -0.53386,-1.51826 -0.0012,-0.0035 -0.116689,0.31536 -0.255757,0.709 -0.139072,0.39364 -0.26023,0.73746 -0.269663,0.763778 -0.0095,0.02632 -0.01503,0.0469 -0.01193,0.04547 0.0031,-0.0014 0.03386,-0.01686 0.06804,-0.03411 0.08375,-0.04225 0.177079,-0.07392 0.27562,-0.09353 0.02567,-0.0051 0.04528,-0.0071 0.06605,-0.0093 v 10e-4 c -0.145431,0.01842 -0.289157,0.06798 -0.422619,0.149343 z m -0.09932,1.396814 c 0.03136,-0.0018 0.0694,-0.0016 0.131603,0 0.01465,3.7e-4 0.01818,0.0012 0.03029,0.0016 -0.04765,-0.0029 -0.09529,-0.0039 -0.143025,0 h -0.0298 c 0.0036,-2.65e-4 0.0072,-0.0013 0.01094,-0.0016 z m 5.433182,-1.5906 c -0.01839,0.0022 -0.03387,0.01532 -0.03973,0.03359 l -0.613816,1.73426 c -0.0158,0.04628 0.03571,0.08576 0.0735,0.05633 0.139618,-0.104276 0.29813,-0.165269 0.459867,-0.187071 v 8.367447 h 0.255258 v -8.367964 c 0.160981,0.02169 0.317852,0.08302 0.454403,0.187585 0.03771,0.02831 0.08808,-0.01056 0.073,-0.05633 l -0.611829,-1.734258 c -0.0061,-0.01875 -0.02227,-0.03195 -0.04122,-0.03359 -0.0031,-3.24e-4 -0.0063,-3.24e-4 -0.0094,0 z m 0.0055,0.193786 0.546275,1.55081 c -0.130409,-0.08109 -0.271523,-0.130208 -0.415171,-0.148829 0.04443,0.0033 0.07911,0.0084 0.126142,0.02119 0.0873,0.02374 0.192047,0.0655 0.245327,0.09767 0.01727,0.01042 0.03225,0.01794 0.03327,0.01654 0.0012,-0.0018 -0.513443,-1.465858 -0.533861,-1.51826 -0.0012,-0.0035 -0.116688,0.31536 -0.255757,0.709 -0.139071,0.39364 -0.260229,0.73746 -0.269663,0.763778 -0.0095,0.02632 -0.01503,0.0469 -0.01193,0.04547 0.0031,-0.0014 0.03386,-0.01686 0.06804,-0.03411 0.08375,-0.04225 0.177079,-0.07392 0.27562,-0.09353 0.02567,-0.0051 0.04528,-0.0071 0.06605,-0.0093 v 10e-4 c -0.14543,0.01842 -0.289157,0.06798 -0.422619,0.149343 z m -0.09932,1.396814 c 0.03136,-0.0018 0.0694,-0.0016 0.131604,0 0.01465,3.7e-4 0.01818,0.0012 0.03029,0.0016 -0.04765,-0.0029 -0.09529,-0.0039 -0.143025,0 h -0.0298 c 0.0036,-2.65e-4 0.0072,-0.0013 0.01094,-0.0016 z m 5.433183,-1.5906 c -0.01839,0.0022 -0.03387,0.01532 -0.03973,0.03359 l -0.613815,1.73426 c -0.0158,0.04628 0.03571,0.08576 0.0735,0.05633 0.139617,-0.104276 0.29813,-0.165269 0.459866,-0.187071 v 8.367447 h 0.255259 v -8.367964 c 0.160981,0.02169 0.317851,0.08302 0.454403,0.187585 0.03771,0.02831 0.08808,-0.01056 0.073,-0.05633 l -0.611828,-1.734258 c -0.0061,-0.01875 -0.02227,-0.03195 -0.04122,-0.03359 -0.0031,-3.24e-4 -0.0063,-3.24e-4 -0.0094,0 z m 0.0055,0.193786 0.546275,1.55081 c -0.130409,-0.08109 -0.271522,-0.130208 -0.41517,-0.148829 0.04443,0.0033 0.07911,0.0084 0.126142,0.02119 0.0873,0.02374 0.192047,0.0655 0.245326,0.09767 0.01727,0.01042 0.03225,0.01794 0.03327,0.01654 0.0012,-0.0018 -0.513443,-1.465858 -0.53386,-1.51826 -0.0012,-0.0035 -0.116689,0.31536 -0.255757,0.709 -0.139072,0.39364 -0.26023,0.73746 -0.269663,0.763778 -0.0095,0.02632 -0.01503,0.0469 -0.01193,0.04547 0.0031,-0.0014 0.03386,-0.01686 0.06804,-0.03411 0.08375,-0.04225 0.177079,-0.07392 0.27562,-0.09353 0.02567,-0.0051 0.04528,-0.0071 0.06605,-0.0093 v 10e-4 c -0.145431,0.01842 -0.289157,0.06798 -0.422619,0.149343 z m -0.09932,1.396814 c 0.03136,-0.0018 0.06939,-0.0016 0.131603,0 0.01465,3.7e-4 0.01818,0.0012 0.03029,0.0016 -0.04765,-0.0029 -0.09529,-0.0039 -0.143025,0 h -0.0298 c 0.0036,-2.65e-4 0.0072,-0.0013 0.01094,-0.0016 z m 5.433182,-1.5906 c -0.01838,0.0022 -0.03387,0.01532 -0.03973,0.03359 l -0.613816,1.73426 c -0.0158,0.04628 0.03571,0.08576 0.0735,0.05633 0.139617,-0.104276 0.29813,-0.165269 0.459867,-0.187071 v 8.367447 h 0.255258 v -8.367964 c 0.160981,0.02169 0.317852,0.08302 0.454403,0.187585 0.03771,0.02831 0.08808,-0.01056 0.073,-0.05633 l -0.611829,-1.734258 c -0.0061,-0.01875 -0.02227,-0.03195 -0.04122,-0.03359 -0.0031,-3.24e-4 -0.0063,-3.24e-4 -0.0094,0 z m 0.0055,0.193786 0.546274,1.55081 c -0.130408,-0.08109 -0.271522,-0.130208 -0.41517,-0.148829 0.04443,0.0033 0.07911,0.0084 0.126142,0.02119 0.0873,0.02374 0.192047,0.0655 0.245327,0.09767 0.01727,0.01042 0.03225,0.01794 0.03327,0.01654 0.0012,-0.0018 -0.513442,-1.465858 -0.53386,-1.51826 -0.0012,-0.0035 -0.116688,0.31536 -0.255757,0.709 -0.139071,0.39364 -0.260229,0.73746 -0.269663,0.763778 -0.0095,0.02632 -0.01503,0.0469 -0.01193,0.04547 0.0031,-0.0014 0.03386,-0.01686 0.06804,-0.03411 0.08375,-0.04225 0.177079,-0.07392 0.27562,-0.09353 0.02567,-0.0051 0.04528,-0.0071 0.06605,-0.0093 v 10e-4 c -0.14543,0.01842 -0.289157,0.06798 -0.422619,0.149343 z m -0.09933,1.396814 c 0.03136,-0.0018 0.0694,-0.0016 0.131604,0 0.01465,3.7e-4 0.01818,0.0012 0.03029,0.0016 -0.04765,-0.0029 -0.09529,-0.0039 -0.143025,0 h -0.0298 c 0.0036,-2.65e-4 0.0072,-0.0013 0.01094,-0.0016 z m 5.433183,-1.5906 c -0.01839,0.0022 -0.03387,0.01532 -0.03973,0.03359 l -0.613815,1.73426 c -0.0158,0.04628 0.03571,0.08576 0.0735,0.05633 0.139617,-0.104276 0.298129,-0.165269 0.459866,-0.187071 v 8.367447 h 0.255258 v -8.367964 c 0.160982,0.02169 0.317852,0.08302 0.454404,0.187585 0.03771,0.02831 0.08808,-0.01056 0.073,-0.05633 l -0.611829,-1.734258 c -0.0061,-0.01875 -0.02227,-0.03195 -0.04122,-0.03359 -0.0031,-3.24e-4 -0.0063,-3.24e-4 -0.0094,0 z m 0.0055,0.193786 0.546275,1.55081 c -0.130409,-0.08109 -0.271522,-0.130208 -0.41517,-0.148829 0.04443,0.0033 0.07911,0.0084 0.126142,0.02119 0.0873,0.02374 0.192047,0.0655 0.245326,0.09767 0.01727,0.01042 0.03225,0.01794 0.03327,0.01654 0.0012,-0.0018 -0.513443,-1.465858 -0.53386,-1.51826 -0.0012,-0.0035 -0.116689,0.31536 -0.255757,0.709 -0.139072,0.39364 -0.26023,0.73746 -0.269663,0.763778 -0.0095,0.02632 -0.01503,0.0469 -0.01193,0.04547 0.0031,-0.0014 0.03386,-0.01686 0.06804,-0.03411 0.08375,-0.04225 0.177079,-0.07392 0.27562,-0.09353 0.02567,-0.0051 0.04528,-0.0071 0.06605,-0.0093 v 10e-4 c -0.145431,0.01842 -0.289157,0.06798 -0.422619,0.149343 z m -0.09932,1.396814 c 0.03136,-0.0018 0.06939,-0.0016 0.131603,0 0.01465,3.7e-4 0.01818,0.0012 0.03029,0.0016 -0.04765,-0.0029 -0.09529,-0.0039 -0.143025,0 h -0.0298 c 0.0036,-2.65e-4 0.0072,-0.0013 0.01094,-0.0016 z m 5.433182,-1.5906 c -0.01838,0.0022 -0.03387,0.01532 -0.03973,0.03359 l -0.613815,1.73426 c -0.0158,0.04628 0.03571,0.08576 0.0735,0.05633 0.139617,-0.104276 0.29813,-0.165269 0.459867,-0.187071 v 8.367447 h 0.255258 v -8.367964 c 0.160981,0.02169 0.317851,0.08302 0.454403,0.187585 0.03771,0.02831 0.08808,-0.01056 0.073,-0.05633 l -0.611829,-1.734258 c -0.0061,-0.01875 -0.02227,-0.03195 -0.04122,-0.03359 -0.0031,-3.24e-4 -0.0063,-3.24e-4 -0.0094,0 z m 0.0055,0.193786 0.546274,1.55081 c -0.130408,-0.08109 -0.271522,-0.130208 -0.41517,-0.148829 0.04443,0.0033 0.07911,0.0084 0.126142,0.02119 0.0873,0.02374 0.192047,0.0655 0.245327,0.09767 0.01727,0.01042 0.03225,0.01794 0.03327,0.01654 0.0012,-0.0018 -0.513442,-1.465858 -0.53386,-1.51826 -0.0012,-0.0035 -0.116688,0.31536 -0.255757,0.709 -0.139071,0.39364 -0.260229,0.73746 -0.269663,0.763778 -0.0095,0.02632 -0.01503,0.0469 -0.01193,0.04547 0.0031,-0.0014 0.03386,-0.01686 0.06804,-0.03411 0.08375,-0.04225 0.17708,-0.07392 0.275621,-0.09353 0.02567,-0.0051 0.04528,-0.0071 0.06605,-0.0093 v 10e-4 c -0.14543,0.01842 -0.289157,0.06798 -0.422619,0.149343 z m -0.09933,1.396814 c 0.03136,-0.0018 0.0694,-0.0016 0.131604,0 0.01465,3.7e-4 0.01818,0.0012 0.03029,0.0016 -0.04765,-0.0029 -0.09529,-0.0039 -0.143025,0 h -0.0298 c 0.0036,-2.65e-4 0.0072,-0.0013 0.01094,-0.0016 z m 5.433183,-1.5906 c -0.01839,0.0022 -0.03387,0.01532 -0.03973,0.03359 l -0.613815,1.73426 c -0.0158,0.04628 0.03571,0.08576 0.0735,0.05633 0.139617,-0.104276 0.298129,-0.165269 0.459866,-0.187071 v 8.367447 h 0.255258 v -8.367964 c 0.160982,0.02169 0.317852,0.08302 0.454404,0.187585 0.03771,0.02831 0.08808,-0.01056 0.073,-0.05633 l -0.611829,-1.734258 c -0.0061,-0.01875 -0.02227,-0.03195 -0.04122,-0.03359 -0.0031,-3.24e-4 -0.0063,-3.24e-4 -0.0094,0 z m 0.0055,0.193786 0.546275,1.55081 c -0.130409,-0.08109 -0.271522,-0.130208 -0.41517,-0.148829 0.04443,0.0033 0.07911,0.0084 0.126142,0.02119 0.0873,0.02374 0.192047,0.0655 0.245326,0.09767 0.01727,0.01042 0.03225,0.01794 0.03327,0.01654 0.0012,-0.0018 -0.513443,-1.465858 -0.53386,-1.51826 -0.0012,-0.0035 -0.116689,0.31536 -0.255757,0.709 -0.139072,0.39364 -0.26023,0.73746 -0.269663,0.763778 -0.0095,0.02632 -0.01503,0.0469 -0.01193,0.04547 0.0031,-0.0014 0.03386,-0.01686 0.06804,-0.03411 0.08375,-0.04225 0.177079,-0.07392 0.27562,-0.09353 0.02567,-0.0051 0.04528,-0.0071 0.06605,-0.0093 v 10e-4 c -0.145431,0.01842 -0.289157,0.06798 -0.422619,0.149343 z m -0.09932,1.396814 c 0.03136,-0.0018 0.06939,-0.0016 0.131603,0 0.01465,3.7e-4 0.01818,0.0012 0.03029,0.0016 -0.04765,-0.0029 -0.09529,-0.0039 -0.143025,0 h -0.0298 c 0.0036,-2.65e-4 0.0072,-0.0013 0.01094,-0.0016 z m 5.433182,-1.5906 c -0.01839,0.0022 -0.03387,0.01532 -0.03973,0.03359 l -0.613815,1.73426 c -0.0158,0.04628 0.03571,0.08576 0.0735,0.05633 0.139617,-0.104276 0.29813,-0.165269 0.459867,-0.187071 v 8.367447 h 0.255258 v -8.367964 c 0.160981,0.02169 0.317851,0.08302 0.454401,0.187585 0.0377,0.02831 0.0881,-0.01056 0.073,-0.05633 l -0.611829,-1.734258 c -0.0061,-0.01875 -0.02227,-0.03195 -0.04122,-0.03359 -0.0031,-3.24e-4 -0.0063,-3.24e-4 -0.0094,0 z m 0.0055,0.193786 0.546276,1.55081 c -0.130411,-0.08109 -0.271524,-0.130208 -0.415172,-0.148829 0.04443,0.0033 0.07911,0.0084 0.126142,0.02119 0.0873,0.02374 0.192047,0.0655 0.24533,0.09767 0.0173,0.01042 0.0323,0.01794 0.0333,0.01654 0.001,-0.0018 -0.513446,-1.465858 -0.533864,-1.51826 -0.0012,-0.0035 -0.116689,0.31536 -0.255757,0.709 -0.139071,0.39364 -0.26023,0.73746 -0.269663,0.763778 -0.0095,0.02632 -0.01503,0.0469 -0.01193,0.04547 0.0031,-0.0014 0.03386,-0.01686 0.06804,-0.03411 0.08375,-0.04225 0.17708,-0.07392 0.27562,-0.09353 0.02567,-0.0051 0.04528,-0.0071 0.06605,-0.0093 v 10e-4 c -0.14543,0.01842 -0.289157,0.06798 -0.422619,0.149343 z m -0.09932,1.396814 c 0.03136,-0.0018 0.0694,-0.0016 0.131604,0 0.01465,3.7e-4 0.01818,0.0012 0.03029,0.0016 -0.04765,-0.0029 -0.09529,-0.0039 -0.143025,0 h -0.0298 c 0.0036,-2.65e-4 0.0072,-0.0013 0.01094,-0.0016 z m 5.433181,-1.5906 c -0.0184,0.0022 -0.0339,0.01532 -0.0397,0.03359 l -0.61381,1.73426 c -0.0158,0.04628 0.0357,0.08576 0.0735,0.05633 0.13961,-0.104276 0.29813,-0.165269 0.45986,-0.187071 v 8.367447 h 0.25526 v -8.367964 c 0.16098,0.02169 0.31785,0.08302 0.4544,0.187585 0.0377,0.02831 0.0881,-0.01056 0.073,-0.05633 l -0.61183,-1.734258 c -0.006,-0.01875 -0.0223,-0.03195 -0.0412,-0.03359 -0.003,-3.24e-4 -0.006,-3.24e-4 -0.009,0 z m 0.005,0.193786 0.54627,1.55081 c -0.13041,-0.08109 -0.27152,-0.130208 -0.41517,-0.148829 0.0444,0.0033 0.0791,0.0084 0.12614,0.02119 0.0873,0.02374 0.19205,0.0655 0.24533,0.09767 0.0173,0.01042 0.0322,0.01794 0.0333,0.01654 0.001,-0.0018 -0.51344,-1.465858 -0.53386,-1.51826 -0.001,-0.0035 -0.11669,0.31536 -0.25576,0.709 -0.13907,0.39364 -0.26023,0.73746 -0.26966,0.763778 -0.01,0.02632 -0.015,0.0469 -0.0119,0.04547 0.003,-0.0014 0.0339,-0.01686 0.068,-0.03411 0.0838,-0.04225 0.17708,-0.07392 0.27562,-0.09353 0.0257,-0.0051 0.0453,-0.0071 0.0661,-0.0093 v 10e-4 c -0.14543,0.01842 -0.28915,0.06798 -0.42262,0.149343 z m -0.0993,1.396814 c 0.0314,-0.0018 0.0694,-0.0016 0.1316,0 0.0147,3.7e-4 0.0182,0.0012 0.0303,0.0016 -0.0476,-0.0029 -0.0953,-0.0039 -0.14303,0 h -0.0298 c 0.004,-2.65e-4 0.007,-0.0013 0.0109,-0.0016 z m 5.43318,-1.5906 c -0.0184,0.0022 -0.0339,0.01532 -0.0397,0.03359 l -0.61382,1.73426 c -0.0158,0.04628 0.0357,0.08576 0.0735,0.05633 0.13962,-0.104276 0.29813,-0.165269 0.45987,-0.187071 v 8.367447 h 0.25525 v -8.367964 c 0.16099,0.02169 0.31786,0.08302 0.45441,0.187585 0.0377,0.02831 0.0881,-0.01056 0.073,-0.05633 l -0.61182,-1.734258 c -0.006,-0.01875 -0.0223,-0.03195 -0.0412,-0.03359 -0.003,-3.24e-4 -0.006,-3.24e-4 -0.009,0 z m 0.005,0.193786 0.54627,1.55081 c -0.13041,-0.08109 -0.27152,-0.130208 -0.41517,-0.148829 0.0444,0.0033 0.0791,0.0084 0.12615,0.02119 0.0873,0.02374 0.19204,0.0655 0.24532,0.09767 0.0173,0.01042 0.0323,0.01794 0.0333,0.01654 0.001,-0.0018 -0.51344,-1.465858 -0.53386,-1.51826 -0.001,-0.0035 -0.11669,0.31536 -0.25576,0.709 -0.13907,0.39364 -0.26023,0.73746 -0.26966,0.763778 -0.01,0.02632 -0.015,0.0469 -0.0119,0.04547 0.003,-0.0014 0.0339,-0.01686 0.068,-0.03411 0.0838,-0.04225 0.17708,-0.07392 0.27562,-0.09353 0.0257,-0.0051 0.0453,-0.0071 0.0661,-0.0093 v 10e-4 c -0.14543,0.01842 -0.28915,0.06798 -0.42261,0.149343 z m -0.0993,1.396814 c 0.0314,-0.0018 0.0694,-0.0016 0.13161,0 0.0146,3.7e-4 0.0182,0.0012 0.0303,0.0016 -0.0476,-0.0029 -0.0953,-0.0039 -0.14303,0 h -0.0298 c 0.004,-2.65e-4 0.007,-0.0013 0.0109,-0.0016 z m 5.43319,-1.5906 c -0.0184,0.0022 -0.0339,0.01532 -0.0397,0.03359 l -0.61382,1.73426 c -0.0158,0.04628 0.0357,0.08576 0.0735,0.05633 0.13962,-0.104276 0.29813,-0.165269 0.45987,-0.187071 v 8.367447 h 0.25526 v -8.367964 c 0.16098,0.02169 0.31785,0.08302 0.4544,0.187585 0.0377,0.02831 0.0881,-0.01056 0.073,-0.05633 l -0.61183,-1.734258 c -0.006,-0.01875 -0.0223,-0.03195 -0.0412,-0.03359 -0.003,-3.24e-4 -0.006,-3.24e-4 -0.009,0 z m 0.005,0.193786 0.54628,1.55081 c -0.13041,-0.08109 -0.27153,-0.130208 -0.41517,-0.148829 0.0444,0.0033 0.0791,0.0084 0.12614,0.02119 0.0873,0.02374 0.19204,0.0655 0.24532,0.09767 0.0173,0.01042 0.0323,0.01794 0.0333,0.01654 0.001,-0.0018 -0.51344,-1.465858 -0.53386,-1.51826 -0.001,-0.0035 -0.11669,0.31536 -0.25575,0.709 -0.13907,0.39364 -0.26023,0.73746 -0.26967,0.763778 -0.01,0.02632 -0.015,0.0469 -0.0119,0.04547 0.003,-0.0014 0.0339,-0.01686 0.068,-0.03411 0.0837,-0.04225 0.17708,-0.07392 0.27562,-0.09353 0.0257,-0.0051 0.0453,-0.0071 0.0661,-0.0093 v 10e-4 c -0.14543,0.01842 -0.28916,0.06798 -0.42262,0.149343 z m -0.0993,1.396814 c 0.0314,-0.0018 0.0694,-0.0016 0.1316,0 0.0146,3.7e-4 0.0182,0.0012 0.0303,0.0016 -0.0477,-0.0029 -0.0953,-0.0039 -0.14302,0 h -0.0298 c 0.004,-2.65e-4 0.007,-0.0013 0.0109,-0.0016 z m 5.43318,-1.5906 c -0.0184,0.0022 -0.0339,0.01532 -0.0397,0.03359 l -0.61381,1.73426 c -0.0158,0.04628 0.0357,0.08576 0.0735,0.05633 0.13962,-0.104276 0.29813,-0.165269 0.45987,-0.187071 v 8.367447 h 0.25526 v -8.367964 c 0.16098,0.02169 0.31785,0.08302 0.4544,0.187585 0.0377,0.02831 0.0881,-0.01056 0.073,-0.05633 l -0.61183,-1.734258 c -0.006,-0.01875 -0.0223,-0.03195 -0.0412,-0.03359 -0.003,-3.24e-4 -0.006,-3.24e-4 -0.009,0 z m 0.005,0.193786 0.54628,1.55081 c -0.13041,-0.08109 -0.27152,-0.130208 -0.41517,-0.148829 0.0444,0.0033 0.0791,0.0084 0.12614,0.02119 0.0873,0.02374 0.19205,0.0655 0.24533,0.09767 0.0173,0.01042 0.0322,0.01794 0.0333,0.01654 0.001,-0.0018 -0.51345,-1.465858 -0.53386,-1.51826 -0.001,-0.0035 -0.11669,0.31536 -0.25576,0.709 -0.13907,0.39364 -0.26023,0.73746 -0.26966,0.763778 -0.01,0.02632 -0.015,0.0469 -0.0119,0.04547 0.003,-0.0014 0.0339,-0.01686 0.068,-0.03411 0.0838,-0.04225 0.17708,-0.07392 0.27562,-0.09353 0.0257,-0.0051 0.0453,-0.0071 0.0661,-0.0093 v 10e-4 c -0.14543,0.01842 -0.28916,0.06798 -0.42262,0.149343 z m -0.0993,1.396814 c 0.0314,-0.0018 0.0694,-0.0016 0.1316,0 0.0147,3.7e-4 0.0182,0.0012 0.0303,0.0016 -0.0476,-0.0029 -0.0953,-0.0039 -0.14302,0 h -0.0298 c 0.004,-2.65e-4 0.007,-0.0013 0.0109,-0.0016 z"
       id="path8421"
       inkscape:path-effect="#path-effect9006"
       inkscape:original-d="M 13.446006,49.44711 H 121.55399"
       sodipodi:nodetypes="cc" />
    <g
       id="g9160"
       transform="matrix(1,0,0,1.0044042,0,-0.09252643)">
      <g
         id="g9102"
         style="opacity:1">
        <g
           id="g9104">
          <g
             id="g9108"
             style="opacity:1" />
        </g>
      </g>
    </g>
    <rect
       style="opacity:0.996;fill:none;stroke:#000000;stroke-width:0.816497;stroke-miterlimit:4;stroke-dasharray:none"
       id="rect9519"
       width="115"
       height="11.616287"
       x="10.170567"
       y="38.169025" />
    <path
       style="fill:none;stroke:#000000;stroke-width:0.5;stroke-linecap:butt;stroke-linejoin:miter;stroke-miterlimit:4;stroke-dasharray:none;stroke-opacity:1;marker-end:url(#Arrow2Mend)"
       d="m 71.35833,164.57545 v 10"
       id="path9593" />
    <path
       id="path9937"
       style="color:#000000;font-style:normal;font-variant:normal;font-weight:normal;font-stretch:normal;font-size:medium;line-height:normal;font-family:sans-serif;font-variant-ligatures:normal;font-variant-position:normal;font-variant-caps:normal;font-variant-numeric:normal;font-variant-alternates:normal;font-variant-east-asian:normal;font-feature-settings:normal;font-variation-settings:normal;text-indent:0;text-align:start;text-decoration:none;text-decoration-line:none;text-decoration-style:solid;text-decoration-color:#000000;letter-spacing:normal;word-spacing:normal;text-transform:none;writing-mode:lr-tb;direction:ltr;text-orientation:mixed;dominant-baseline:auto;baseline-shift:baseline;text-anchor:start;white-space:normal;shape-padding:0;shape-margin:0;inline-size:0;clip-rule:nonzero;display:inline;overflow:visible;visibility:visible;isolation:auto;mix-blend-mode:normal;color-interpolation:sRGB;color-interpolation-filters:linearRGB;solid-color:#000000;solid-opacity:1;vector-effect:none;fill:#000000;fill-opacity:1;fill-rule:nonzero;stroke:none;stroke-width:0.264583px;stroke-linecap:butt;stroke-linejoin:miter;stroke-miterlimit:4;stroke-dasharray:none;stroke-dashoffset:0;stroke-opacity:1;color-rendering:auto;image-rendering:auto;shape-rendering:auto;text-rendering:auto;enable-background:accumulate;stop-color:#000000"
       d="m -34.435178,13.255404 a 0.04961426,0.04961426 0 0 0 -0.04134,0.03359 l -0.63872,1.734261 a 0.04961426,0.04961426 0 0 0 0.07648,0.05633 c 0.145283,-0.104273 0.310227,-0.165267 0.478526,-0.187069 v 8.367448 h 0.265615 v -8.367965 c 0.167513,0.02169 0.330747,0.08302 0.472839,0.187586 a 0.04961426,0.04961426 0 0 0 0.07596,-0.05633 l -0.636654,-1.734261 a 0.04961426,0.04961426 0 0 0 -0.04289,-0.03359 0.04961426,0.04961426 0 0 0 -0.0098,0 z m 0.0057,0.193786 L -33.861053,15 c -0.1357,-0.08109 -0.282538,-0.130207 -0.432015,-0.148828 0.04623,0.0033 0.08232,0.0084 0.13126,0.02119 0.09085,0.02374 0.19984,0.0655 0.255281,0.09767 0.01796,0.01042 0.03356,0.01794 0.03462,0.01654 0.0014,-0.0018 -0.534276,-1.465852 -0.555522,-1.518253 -0.0014,-0.0036 -0.121422,0.31536 -0.266134,0.709 -0.144713,0.39364 -0.270787,0.73746 -0.280603,0.763778 -0.0099,0.02632 -0.01563,0.0469 -0.0124,0.04547 0.0032,-0.0014 0.03523,-0.01686 0.0708,-0.03411 0.08715,-0.04225 0.184264,-0.07392 0.286803,-0.09353 0.02671,-0.0051 0.04712,-0.0071 0.06873,-0.0093 v 10e-4 C -34.711564,14.869073 -34.861123,14.918632 -35,15 Z m -0.103354,1.396814 c 0.03263,-0.0018 0.07221,-0.0016 0.136943,0 0.01524,3.73e-4 0.01892,0.0012 0.03152,0.0016 -0.04958,-0.0029 -0.09916,-0.0039 -0.148828,0 h -0.03101 c 0.0037,-2.74e-4 0.0075,-0.0013 0.01137,-0.0016 z" />
    <text
       xml:space="preserve"
       style="font-style:normal;font-weight:normal;font-size:7.05556px;line-height:1;font-family:sans-serif;letter-spacing:0px;word-spacing:0px;fill:#000000;fill-opacity:1;stroke:none;stroke-width:0.264583"
       x="149.63274"
       y="48.151146"
       id="text11922"><tspan
         sodipodi:role="line"
         id="tspan11920"
         x="149.63274"
         y="48.151146"
         style="font-size:7.05556px;stroke-width:0.264583">$q=\frac{1}{2}\rho U^2 c_L$</tspan></text>
    <text
       xml:space="preserve"
       style="font-style:normal;font-weight:normal;font-size:10.5833px;line-height:1;font-family:sans-serif;letter-spacing:0px;word-spacing:0px;fill:#000000;fill-opacity:1;stroke:none;stroke-width:0.264583"
       x="68.130783"
       y="185.76292"
       id="text12356"><tspan
         sodipodi:role="line"
         id="tspan12354"
         x="68.130783"
         y="185.76292"
         style="stroke-width:0.264583">T</tspan></text>
    <path
       style="fill:none;stroke:#000000;stroke-width:0.5;stroke-linecap:butt;stroke-linejoin:round;stroke-opacity:1;marker-start:url(#DistanceStart);marker-end:url(#DistanceEnd);paint-order:markers fill stroke"
       d="m 10,12.720833 115,0.237498"
       id="path13156"
       sodipodi:nodetypes="cc" />
    <text
       xml:space="preserve"
       style="font-style:normal;font-weight:normal;font-size:10.5833px;line-height:1;font-family:sans-serif;letter-spacing:0px;word-spacing:0px;fill:#000000;fill-opacity:1;stroke:none;stroke-width:0.264583"
       x="64.033829"
       y="7.7208371"
       id="text13344"><tspan
         sodipodi:role="line"
         id="tspan13342"
         x="64.033829"
         y="7.7208371"
         style="stroke-width:0.264583">b</tspan></text>
    <text
       xml:space="preserve"
       style="font-style:normal;font-weight:normal;font-size:10.5833px;line-height:1.25;font-family:sans-serif;fill:#000000;fill-opacity:1;stroke:none;stroke-width:0.264583"
       x="64.413651"
       y="26.458332"
       id="text60"><tspan
         sodipodi:role="line"
         id="tspan58"
         style="stroke-width:0.264583"
         x="64.413651"
         y="26.458332">q</tspan></text>
    <text
       xml:space="preserve"
       style="font-style:normal;font-weight:normal;font-size:10.5833px;line-height:1;font-family:sans-serif;letter-spacing:0px;word-spacing:0px;display:inline;fill:#000000;fill-opacity:1;stroke:none;stroke-width:0.264583"
       x="28.453068"
       y="84.916733"
       id="text12120"><tspan
         sodipodi:role="line"
         id="tspan12118"
         x="28.453068"
         y="84.916733"
         style="stroke-width:0.264583">α</tspan></text>
  </g>
</svg>
